<svg xmlns="http://www.w3.org/2000/svg" viewBox="0 0 120 120" width="512" height="512" role="img" aria-label="Wazn">
  <title>Wazn</title>
  <rect width="120" height="120" fill="#0c0b0a"/>
  <g transform="translate(8.40 35.86) scale(0.4315)"><line x1="17.90" y1="68.94" x2="221.25" y2="68.94" stroke="#f0b429" stroke-width="14.60" stroke-linecap="round"/><path d="M188.65 61.39V61.24Q191.35 64.54 197.95 64.54Q200.35 64.54 202.3 64.09Q202.6 64.69 202.75 65.14Q202.75 65.29 202.75 65.52Q202.75 65.74 202.75 66.04Q202.75 66.19 202.82 66.27Q202.9 66.34 202.9 66.34V66.49Q198.85 70.99 192.7 73.54Q180.25 78.64 167.35 83.59Q154.45 88.54 143.05 94.84Q141.7 95.74 141.7 97.54Q141.7 99.79 144.1 100.09Q148.45 100.39 152.95 100.84Q157.45 101.29 161.95 101.29Q162.55 101.29 162.7 101.29Q162.85 101.29 163.45 101.29Q167.2 101.29 170.5 100.99Q173.8 100.69 177.1 100.09Q184.6 98.59 190.9 94.32Q197.2 90.04 202.23 84.27Q207.25 78.49 210.55 72.34Q212.8 67.99 214.45 62.67Q216.1 57.34 216.25 51.34V50.44Q216.25 40.09 209.05 32.74Q208.0 31.69 206.28 30.64Q204.55 29.59 202.45 29.59Q200.5 29.59 198.55 31.54Q195.85 34.54 194.05 38.22Q192.25 41.89 190.45 45.79Q189.4 47.89 187.98 50.67Q186.55 53.44 186.55 56.14Q186.55 57.94 187.15 59.14Q187.75 60.34 188.65 61.39ZM134.35 37.8Q132.91 37.8 132.55 38.97Q130.57 43.29 126.97 45.72Q122.83 48.42 117.84 50.31Q112.84 52.2 107.71 53.82Q105.73 54.45 104.07 55.04Q102.4 55.62 101.14 56.07Q99.88 56.52 98.4 57.15Q96.91 57.78 95.83 58.64Q94.75 59.49 94.75 60.66Q94.75 61.56 95.2 62.01Q96.46 63.18 100.51 63.54Q104.29 63.9 109.42 64.08H110.23Q116.8 64.08 121.26 62.01Q125.71 59.94 128.77 56.43Q130.3 54.54 131.61 51.75Q132.91 48.96 133.99 45.72Q135.07 42.48 135.7 39.6V39.24Q135.52 37.89 134.35 37.8ZM76.45 58.59V59.04Q74.8 60.54 73.0 61.89Q71.2 63.24 69.1 64.44Q64.75 66.99 58.98 69.02Q53.2 71.04 46.45 71.04Q44.5 71.04 42.48 70.89Q40.45 70.74 38.05 70.29Q31.6 67.29 31.6 62.49Q31.6 61.29 31.98 60.24Q32.35 59.19 32.65 58.14L32.5 58.29Q34.15 53.94 35.88 49.74Q37.6 45.54 39.55 41.64L48.7 47.64Q50.5 48.69 51.25 47.04Q53.65 42.84 55.9 38.72Q58.15 34.59 60.55 30.39Q61.0 29.64 60.78 28.97Q60.55 28.29 60.1 27.99L48.25 20.19H48.1L46.0 18.99Q45.4 18.54 44.65 18.77Q43.9 18.99 43.6 19.59L41.5 23.34Q37.45 30.39 33.18 38.94Q28.9 47.49 26.35 54.54Q22.9 64.44 22.9 71.19Q22.9 71.49 22.9 71.72Q22.9 71.94 22.9 72.39Q22.9 72.69 22.98 72.92Q23.05 73.14 23.05 73.44Q23.8 80.19 26.43 85.44Q29.05 90.69 33.85 93.09V92.94Q36.25 93.99 38.73 94.67Q41.2 95.34 43.75 95.34Q46.6 95.34 49.6 94.67Q52.6 93.99 55.9 92.94Q68.8 88.14 77.05 76.29Q79.15 73.29 80.8 69.99Q82.45 66.69 83.8 63.39Q85.9 58.29 87.33 52.74Q88.75 47.19 88.75 40.44Q88.75 30.24 83.95 19.89Q83.5 18.69 82.38 18.69Q81.25 18.69 80.8 19.89L72.55 38.64Q73.9 43.29 75.18 47.94Q76.45 52.59 76.45 58.59Z" fill="#ecebe8" stroke="#ecebe8" stroke-width="4.60" stroke-linejoin="round"/><path d="M 116.19 22.41 a 11.81 11.81 0 1 0 23.62 0 a 11.81 11.81 0 1 0 -23.62 0 Z M 122.81 22.41 a 5.20 5.20 0 1 0 10.40 0 a 5.20 5.20 0 1 0 -10.40 0 Z" fill="#f0b429" fill-rule="evenodd"/></g>
</svg>
